<svg width="119" height="104" viewBox="0 0 119 104" fill="none" xmlns="http://www.w3.org/2000/svg">
<path d="M80.16 35.42C71.7899 35.42 63.27 35.08 55.2999 32.86C47.4799 30.69 40.2999 26.48 33.8999 21.61C29.7099 18.44 25.8999 15.92 20.4599 16.3C15.1335 16.5916 10.0423 18.5902 5.93995 22C-0.980052 28 0.0599475 39.23 2.82995 47.12C6.98995 59 19.6499 67.23 30.4099 72.61C42.84 78.82 56.5 82.42 70.1899 84.5C82.1899 86.32 97.6099 87.65 108.01 79.81C117.56 72.61 120.18 56.17 117.84 45.07C117.273 41.7879 115.527 38.8258 112.93 36.74C106.22 31.84 96.2099 35.11 88.6699 35.28C85.8699 35.34 83.02 35.41 80.16 35.42Z" fill="#F2F2F2"/>
<path d="M59.68 103.95C79.9543 103.95 96.39 102.925 96.39 101.66C96.39 100.395 79.9543 99.37 59.68 99.37C39.4056 99.37 22.97 100.395 22.97 101.66C22.97 102.925 39.4056 103.95 59.68 103.95Z" fill="#F2F2F2"/>
<path d="M86.2307 5.12191L29.6957 25.5427C27.7478 26.2462 26.7391 28.3957 27.4427 30.3436L39.3703 63.3654C40.0739 65.3133 42.2234 66.322 44.1713 65.6185L100.706 45.1977C102.654 44.4941 103.663 42.3447 102.959 40.3968L91.0316 7.37492C90.328 5.42702 88.1786 4.41832 86.2307 5.12191Z" fill="#D2D2D2"/>
<path d="M42.9099 83.26C43.4512 83.26 43.8899 82.8212 43.8899 82.28C43.8899 81.7387 43.4512 81.3 42.9099 81.3C42.3687 81.3 41.9299 81.7387 41.9299 82.28C41.9299 82.8212 42.3687 83.26 42.9099 83.26Z" fill="#CFCFCF"/>
<path d="M68.93 2.78001C69.4712 2.78001 69.91 2.34125 69.91 1.80001C69.91 1.25877 69.4712 0.820007 68.93 0.820007C68.3887 0.820007 67.95 1.25877 67.95 1.80001C67.95 2.34125 68.3887 2.78001 68.93 2.78001Z" fill="#CFCFCF"/>
<path d="M41.7 9.10999V13.42" stroke="#BABABA" stroke-linecap="round" stroke-linejoin="round"/>
<path d="M39.54 11.27H43.85" stroke="#BABABA" stroke-linecap="round" stroke-linejoin="round"/>
<path d="M104.93 25.04V29.34" stroke="#BABABA" stroke-linecap="round" stroke-linejoin="round"/>
<path d="M102.77 27.19H107.08" stroke="#BABABA" stroke-linecap="round" stroke-linejoin="round"/>
<path d="M88.3875 27.0738L28.944 36.0001C26.8959 36.3077 25.4849 38.2173 25.7925 40.2654L31.0063 74.9861C31.3139 77.0342 33.2235 78.4452 35.2716 78.1377L94.7151 69.2113C96.7632 68.9038 98.1742 66.9941 97.8667 64.946L92.6528 30.2253C92.3453 28.1772 90.4356 26.7662 88.3875 27.0738Z" fill="white" stroke="#BABABA" stroke-linecap="round" stroke-linejoin="round"/>
<path d="M84.859 32.5847L79.8551 33.3361C79.0194 33.4616 78.4438 34.2407 78.5692 35.0764L79.3207 40.0803C79.4461 40.9159 80.2253 41.4916 81.0609 41.3661L86.0648 40.6147C86.9004 40.4892 87.4761 39.7101 87.3506 38.8744L86.5992 33.8705C86.4737 33.0349 85.6946 32.4592 84.859 32.5847Z" fill="#D2D2D2"/>
<path d="M51.152 62.5778L36.526 64.7741C36.0672 64.843 35.7512 65.2707 35.8201 65.7295L35.8854 66.1646C35.9543 66.6234 36.382 66.9394 36.8408 66.8706L51.4668 64.6742C51.9256 64.6053 52.2417 64.1776 52.1728 63.7188L52.1074 63.2837C52.0386 62.8249 51.6108 62.5089 51.152 62.5778Z" fill="#D2D2D2"/>
<path d="M61.0401 65.383L37.3754 68.9366C36.7965 69.0235 36.3976 69.5633 36.4846 70.1422C36.5715 70.7211 37.1113 71.12 37.6902 71.033L61.3549 67.4794C61.9338 67.3925 62.3327 66.8527 62.2457 66.2738C62.1588 65.6949 61.619 65.296 61.0401 65.383Z" fill="#D2D2D2"/>
</svg>
