<svg width="118" height="111" viewBox="0 0 118 111" fill="none" xmlns="http://www.w3.org/2000/svg">
<path d="M79.44 41.63C71.08 41.63 62.58 41.3 54.62 39.08C46.66 36.86 39.68 32.71 33.25 27.85C29.07 24.68 25.25 22.17 19.83 22.55C14.5173 22.8302 9.43618 24.815 5.34005 28.21C-1.56995 34.21 -0.519955 45.44 2.24004 53.31C6.39005 65.16 19 73.39 29.77 78.76C42.18 84.96 55.7701 88.56 69.48 90.63C81.48 92.45 96.85 93.77 107.23 85.95C116.77 78.76 119.39 62.35 117.05 51.26C116.469 48.0025 114.724 45.0672 112.14 43C105.45 38.11 95.45 41.38 87.93 41.54C85.13 41.55 82.29 41.62 79.44 41.63Z" fill="#F2F2F2"/>
<path d="M102.63 12.22H16.1599C13.6857 12.22 11.6799 14.2257 11.6799 16.7V78.55C11.6799 81.0242 13.6857 83.03 16.1599 83.03H102.63C105.104 83.03 107.11 81.0242 107.11 78.55V16.7C107.11 14.2257 105.104 12.22 102.63 12.22Z" fill="white" stroke="#BABABA" stroke-linecap="round" stroke-linejoin="round"/>
<path d="M15.23 76.4399H100.6" stroke="#F2F2F2" stroke-linecap="round" stroke-linejoin="round"/>
<path d="M15.23 65.24H100.6" stroke="#F2F2F2" stroke-linecap="round" stroke-linejoin="round"/>
<path d="M15.23 54.05H100.6" stroke="#F2F2F2" stroke-linecap="round" stroke-linejoin="round"/>
<path d="M15.23 42.85H100.6" stroke="#F2F2F2" stroke-linecap="round" stroke-linejoin="round"/>
<path d="M15.23 31.65H100.6" stroke="#F2F2F2" stroke-linecap="round" stroke-linejoin="round"/>
<path d="M15.23 20.45H100.6" stroke="#F2F2F2" stroke-linecap="round" stroke-linejoin="round"/>
<path d="M31.9401 27.74H26.3201C24.9615 27.74 23.8601 28.8414 23.8601 30.2V74.58C23.8601 75.9386 24.9615 77.04 26.3201 77.04H31.9401C33.2987 77.04 34.4001 75.9386 34.4001 74.58V30.2C34.4001 28.8414 33.2987 27.74 31.9401 27.74Z" fill="#D2D2D2"/>
<path d="M52.12 46.97H46.5C45.1414 46.97 44.04 48.0713 44.04 49.43V74.58C44.04 75.9386 45.1414 77.04 46.5 77.04H52.12C53.4787 77.04 54.58 75.9386 54.58 74.58V49.43C54.58 48.0713 53.4787 46.97 52.12 46.97Z" fill="#D2D2D2"/>
<path d="M72.29 32.9H66.67C65.3113 32.9 64.21 34.0014 64.21 35.36V74.57C64.21 75.9286 65.3113 77.03 66.67 77.03H72.29C73.6486 77.03 74.75 75.9286 74.75 74.57V35.36C74.75 34.0014 73.6486 32.9 72.29 32.9Z" fill="#D2D2D2"/>
<path d="M92.4599 53.85H86.8399C85.4813 53.85 84.3799 54.9514 84.3799 56.31V74.57C84.3799 75.9286 85.4813 77.03 86.8399 77.03H92.4599C93.8185 77.03 94.9199 75.9286 94.9199 74.57V56.31C94.9199 54.9514 93.8185 53.85 92.4599 53.85Z" fill="#D2D2D2"/>
<path d="M24.3601 49.9L30.2201 49.67L46.6301 66.54L62.3301 52.24L79.4401 57.87L95.9501 47.33" stroke="#BABABA" stroke-width="1.1" stroke-linecap="round" stroke-linejoin="round"/>
<path d="M35.3799 88.7V93" stroke="#BABABA" stroke-linecap="round" stroke-linejoin="round"/>
<path d="M33.23 90.85H37.53" stroke="#BABABA" stroke-linecap="round" stroke-linejoin="round"/>
<path d="M112.29 32.11V36.41" stroke="#BABABA" stroke-linecap="round" stroke-linejoin="round"/>
<path d="M110.14 34.26H114.44" stroke="#BABABA" stroke-linecap="round" stroke-linejoin="round"/>
<path d="M4.37988 11.28V15.57" stroke="#BABABA" stroke-linecap="round" stroke-linejoin="round"/>
<path d="M2.22998 13.4301H6.52998" stroke="#BABABA" stroke-linecap="round" stroke-linejoin="round"/>
<path d="M6.18996 69.93C6.7312 69.93 7.16996 69.4912 7.16996 68.95C7.16996 68.4087 6.7312 67.97 6.18996 67.97C5.64872 67.97 5.20996 68.4087 5.20996 68.95C5.20996 69.4912 5.64872 69.93 6.18996 69.93Z" fill="#CFCFCF"/>
<path d="M53.1099 2.17997C53.6511 2.17997 54.0899 1.74121 54.0899 1.19997C54.0899 0.658733 53.6511 0.219971 53.1099 0.219971C52.5686 0.219971 52.1299 0.658733 52.1299 1.19997C52.1299 1.74121 52.5686 2.17997 53.1099 2.17997Z" fill="#CFCFCF"/>
<path d="M63.18 110.04C83.4213 110.04 99.83 109.019 99.83 107.76C99.83 106.501 83.4213 105.48 63.18 105.48C42.9388 105.48 26.53 106.501 26.53 107.76C26.53 109.019 42.9388 110.04 63.18 110.04Z" fill="#F2F2F2"/>
<path d="M103.56 24.89C109.972 24.89 115.17 19.6921 115.17 13.28C115.17 6.86802 109.972 1.67004 103.56 1.67004C97.1479 1.67004 91.95 6.86802 91.95 13.28C91.95 19.6921 97.1479 24.89 103.56 24.89Z" fill="#D2D2D2"/>
<path d="M98.51 8.22998L108.6 18.33" stroke="white" stroke-width="1.1" stroke-linecap="round" stroke-linejoin="round"/>
<path d="M108.6 8.22998L98.51 18.33" stroke="white" stroke-width="1.1" stroke-linecap="round" stroke-linejoin="round"/>
</svg>
