<svg width="516" height="315" viewBox="0 0 516 315" fill="none" xmlns="http://www.w3.org/2000/svg">
<g clip-path="url(#clip0_18596_2510)">
<path d="M264.707 254.73L84.3204 301.176C78.2015 302.744 71.7103 301.821 66.271 298.61C60.8317 295.399 56.8884 290.161 55.3063 284.047L0.755791 72.2219C-0.812462 66.1037 0.110453 59.6133 3.32206 54.1746C6.53368 48.7359 11.7717 44.7931 17.887 43.2111L185.707 0.000732422L228.658 19.2269L281.838 225.719C283.407 231.837 282.484 238.327 279.272 243.766C276.061 249.205 270.822 253.148 264.707 254.73Z" fill="#F2F2F2"/>
<path d="M19.5942 49.8524C15.2394 50.9789 11.5092 53.7866 9.22208 57.6596C6.93497 61.5326 6.2777 66.1545 7.39443 70.5114L61.9483 282.337C63.075 286.691 65.883 290.421 69.7564 292.708C73.6298 294.995 78.2523 295.652 82.6097 294.535L262.996 248.09C267.351 246.964 271.081 244.156 273.368 240.283C275.655 236.41 276.313 231.788 275.196 227.431L222.84 24.1371L185.091 7.23999L19.5942 49.8524Z" fill="white"/>
<path d="M228.2 20.3215L200.283 27.5098C198.244 28.0345 196.081 27.7282 194.269 26.6582C192.457 25.5883 191.144 23.8424 190.619 21.8046L185.31 1.18765C185.287 1.09744 185.289 1.00254 185.318 0.913824C185.346 0.825105 185.399 0.746143 185.47 0.685983C185.541 0.625823 185.627 0.586898 185.72 0.57365C185.812 0.560401 185.906 0.573364 185.991 0.61107L228.278 19.3881C228.372 19.43 228.45 19.5 228.503 19.5886C228.555 19.6772 228.579 19.7799 228.57 19.8825C228.562 19.985 228.521 20.0824 228.455 20.1611C228.389 20.2397 228.3 20.2958 228.2 20.3215Z" fill="#F2F2F2"/>
<path d="M213.513 201.214L131.385 222.362C130.369 222.617 129.292 222.46 128.391 221.925C127.49 221.389 126.837 220.519 126.576 219.504C126.314 218.489 126.465 217.411 126.996 216.507C127.526 215.603 128.393 214.945 129.407 214.678L211.534 193.53C212.04 193.397 212.567 193.365 213.085 193.436C213.603 193.507 214.102 193.68 214.553 193.945C215.004 194.209 215.398 194.56 215.713 194.978C216.028 195.395 216.257 195.871 216.388 196.377C216.518 196.883 216.547 197.411 216.473 197.928C216.399 198.446 216.223 198.944 215.956 199.393C215.689 199.843 215.336 200.235 214.916 200.547C214.497 200.86 214.02 201.086 213.513 201.214Z" fill="#CCCCCC"/>
<path d="M232.701 210.099L134.724 235.326C134.218 235.459 133.691 235.491 133.173 235.42C132.655 235.349 132.156 235.176 131.705 234.912C131.254 234.647 130.86 234.296 130.545 233.879C130.23 233.461 130.001 232.985 129.871 232.479C129.74 231.973 129.711 231.446 129.785 230.928C129.86 230.41 130.035 229.913 130.302 229.463C130.569 229.014 130.923 228.621 131.342 228.309C131.761 227.997 132.238 227.77 132.745 227.643L230.722 202.415C231.739 202.159 232.815 202.316 233.717 202.852C234.618 203.388 235.271 204.258 235.532 205.273C235.793 206.288 235.642 207.366 235.112 208.27C234.581 209.174 233.714 209.831 232.701 210.099Z" fill="#CCCCCC"/>
<path d="M97.8657 247.829C105.611 247.829 111.889 241.551 111.889 233.807C111.889 226.063 105.611 219.785 97.8657 219.785C90.1208 219.785 83.8423 226.063 83.8423 233.807C83.8423 241.551 90.1208 247.829 97.8657 247.829Z" fill="#D4E55A"/>
<path d="M204.78 164.518L95.7058 192.592C92.5536 193.4 89.2096 192.924 86.4076 191.27C83.6057 189.615 81.5746 186.917 80.7599 183.767L57.9029 94.9797C57.096 91.8282 57.5721 88.4853 59.2268 85.6843C60.8815 82.8833 63.5797 80.8529 66.7296 80.0383L175.803 51.9644C178.955 51.1567 182.299 51.6324 185.101 53.287C187.903 54.9416 189.934 57.6399 190.749 60.7901L213.607 149.577C214.414 152.729 213.937 156.071 212.283 158.872C210.628 161.673 207.93 163.704 204.78 164.518Z" fill="white"/>
<path d="M204.78 164.518L95.7058 192.592C92.5536 193.4 89.2096 192.924 86.4076 191.27C83.6057 189.615 81.5746 186.917 80.7599 183.767L57.9029 94.9797C57.096 91.8282 57.5721 88.4853 59.2268 85.6843C60.8815 82.8833 63.5797 80.8529 66.7296 80.0383L175.803 51.9644C178.955 51.1567 182.299 51.6324 185.101 53.287C187.903 54.9416 189.934 57.6399 190.749 60.7901L213.607 149.577C214.414 152.729 213.937 156.071 212.283 158.872C210.628 161.673 207.93 163.704 204.78 164.518ZM67.0892 81.4339C64.31 82.1534 61.9296 83.9457 60.4701 86.4176C59.0107 88.8896 58.5914 91.8395 59.3042 94.6201L82.1619 183.407C82.8815 186.186 84.6739 188.566 87.1462 190.025C89.6185 191.485 92.5687 191.904 95.3497 191.191L204.421 163.12C207.2 162.401 209.581 160.608 211.04 158.136C212.5 155.664 212.919 152.715 212.206 149.934L189.35 61.1469C188.631 58.368 186.838 55.9878 184.366 54.5285C181.894 53.0693 178.944 52.65 176.163 53.3627L67.0892 81.4339Z" fill="#E6E6E6"/>
<path d="M170.269 81.8156L115.223 95.9841C114.742 96.1184 114.228 96.0651 113.784 95.835C113.341 95.6048 113.001 95.2149 112.834 94.7442C112.757 94.4981 112.73 94.2388 112.756 93.9821C112.782 93.7254 112.86 93.4766 112.985 93.251C113.11 93.0253 113.28 92.8276 113.484 92.6698C113.688 92.512 113.922 92.3974 114.172 92.3331L170.207 77.9104C172.471 79.0574 171.875 81.4029 170.27 81.8163L170.269 81.8156Z" fill="#F2F2F2"/>
<path d="M172.753 91.4674L117.707 105.636C117.225 105.77 116.711 105.717 116.268 105.487C115.824 105.257 115.485 104.867 115.318 104.396C115.24 104.15 115.214 103.891 115.239 103.634C115.265 103.377 115.343 103.128 115.468 102.903C115.594 102.677 115.763 102.479 115.968 102.322C116.172 102.164 116.406 102.049 116.656 101.985L172.691 87.5623C174.955 88.7092 174.359 91.0548 172.754 91.4681L172.753 91.4674Z" fill="#F2F2F2"/>
<path d="M107.222 114.198L90.4224 118.521C90.1507 118.591 89.8678 118.607 89.59 118.568C89.3122 118.528 89.0449 118.435 88.8033 118.292C88.5617 118.149 88.3506 117.96 88.1821 117.736C88.0135 117.512 87.8908 117.257 87.8209 116.985L82.7172 97.1663C82.6472 96.8946 82.6314 96.6118 82.6707 96.3341C82.7101 96.0563 82.8037 95.789 82.9464 95.5474C83.0891 95.3059 83.278 95.0948 83.5023 94.9262C83.7265 94.7577 83.9818 94.635 84.2536 94.5651L101.053 90.2411C101.602 90.1007 102.184 90.1836 102.672 90.4715C103.159 90.7595 103.513 91.2291 103.655 91.7773L108.759 111.601C108.829 111.872 108.844 112.155 108.805 112.433C108.766 112.711 108.672 112.978 108.529 113.22C108.387 113.461 108.198 113.672 107.974 113.841C107.749 114.009 107.494 114.132 107.222 114.202V114.198Z" fill="#D4E55A"/>
<path d="M177.684 111.28L93.6707 132.903C93.1895 133.037 92.6753 132.984 92.232 132.754C91.7886 132.524 91.4491 132.134 91.2821 131.663C91.2045 131.417 91.1777 131.158 91.2036 130.901C91.2295 130.644 91.3074 130.396 91.4326 130.17C91.5578 129.944 91.7276 129.747 91.9318 129.589C92.136 129.431 92.3702 129.316 92.6201 129.252L177.622 107.374C179.886 108.521 179.289 110.866 177.684 111.28Z" fill="#F2F2F2"/>
<path d="M180.172 120.936L96.1571 142.56C95.6759 142.695 95.1617 142.641 94.7184 142.411C94.275 142.181 93.9355 141.791 93.7685 141.32C93.6908 141.074 93.6641 140.815 93.69 140.558C93.7158 140.302 93.7938 140.053 93.919 139.827C94.0442 139.602 94.214 139.404 94.4182 139.246C94.6224 139.088 94.8566 138.974 95.1065 138.909L180.108 117.031C182.372 118.178 181.776 120.524 180.171 120.937L180.172 120.936Z" fill="#F2F2F2"/>
<path d="M182.655 130.588L98.6414 152.212C98.1603 152.346 97.646 152.293 97.2027 152.063C96.7593 151.833 96.4198 151.443 96.2528 150.972C96.1752 150.726 96.1484 150.467 96.1743 150.21C96.2002 149.953 96.2781 149.704 96.4033 149.479C96.5285 149.253 96.6983 149.055 96.9025 148.898C97.1067 148.74 97.3409 148.625 97.5908 148.561L182.592 126.683C184.856 127.83 184.26 130.175 182.655 130.588Z" fill="#F2F2F2"/>
<path d="M185.142 140.245L101.128 161.868C100.647 162.003 100.132 161.949 99.6891 161.719C99.2457 161.489 98.9062 161.099 98.7392 160.628C98.6615 160.382 98.6348 160.123 98.6607 159.866C98.6865 159.61 98.7645 159.361 98.8897 159.135C99.0149 158.91 99.1847 158.712 99.3889 158.554C99.5931 158.396 99.8273 158.282 100.077 158.217L185.079 136.339C187.342 137.486 186.747 139.832 185.142 140.245Z" fill="#F2F2F2"/>
<path d="M187.626 149.897L103.613 171.52C103.132 171.655 102.617 171.601 102.174 171.371C101.731 171.141 101.391 170.751 101.224 170.28C101.147 170.034 101.12 169.775 101.146 169.518C101.172 169.261 101.249 169.013 101.375 168.787C101.5 168.561 101.67 168.364 101.874 168.206C102.078 168.048 102.312 167.934 102.562 167.869L187.564 145.991C189.827 147.138 189.231 149.483 187.626 149.897Z" fill="#F2F2F2"/>
<path d="M98.9005 238.722C98.5951 238.801 98.2723 238.779 97.9807 238.659L97.9628 238.651L94.1426 237.032C93.9656 236.956 93.8052 236.847 93.6704 236.71C93.5357 236.573 93.4293 236.41 93.3574 236.232C93.2855 236.053 93.2494 235.863 93.2512 235.67C93.253 235.478 93.2926 235.288 93.3679 235.111C93.4432 234.934 93.5526 234.773 93.6899 234.639C93.8272 234.504 93.9896 234.398 94.168 234.326C94.3464 234.254 94.5372 234.218 94.7296 234.219C94.9219 234.221 95.112 234.261 95.289 234.336L97.7644 235.389L101.008 227.759C101.16 227.402 101.448 227.119 101.808 226.974C102.168 226.829 102.571 226.833 102.928 226.985L102.909 227.034L102.929 226.984C103.286 227.136 103.568 227.424 103.713 227.784C103.859 228.144 103.855 228.547 103.703 228.904L99.887 237.876C99.7985 238.082 99.6635 238.266 99.4926 238.412C99.3216 238.558 99.1192 238.663 98.9012 238.719L98.9005 238.722Z" fill="white"/>
<path d="M441.778 310.457L258.93 274.92C252.73 273.708 247.264 270.086 243.732 264.849C240.2 259.612 238.89 253.188 240.089 246.987L281.831 32.2689C283.044 26.0702 286.665 20.6055 291.902 17.0735C297.139 13.5416 303.563 12.2309 309.765 13.429L479.876 46.4905L510.404 82.3026L469.712 291.615C468.5 297.814 464.878 303.279 459.641 306.812C454.404 310.344 447.98 311.655 441.778 310.457Z" fill="#E6E6E6"/>
<path d="M308.457 20.1615C304.04 19.3083 299.465 20.2417 295.736 22.7568C292.007 25.2719 289.428 29.1635 288.564 33.5776L246.822 248.295C245.968 252.712 246.902 257.286 249.417 261.014C251.932 264.743 255.824 267.322 260.239 268.185L443.087 303.722C447.503 304.576 452.078 303.642 455.807 301.127C459.536 298.612 462.116 294.72 462.979 290.306L503.04 84.2379L476.212 52.7653L308.457 20.1615Z" fill="white"/>
<path d="M443.603 111.221L360.354 95.0411C359.321 94.8403 358.41 94.2375 357.822 93.3652C357.233 92.4929 357.016 91.4226 357.216 90.3897C357.417 89.3569 358.02 88.4461 358.892 87.8577C359.765 87.2693 360.835 87.0516 361.868 87.2523L445.119 103.433C446.152 103.633 447.063 104.236 447.651 105.108C448.239 105.981 448.457 107.051 448.256 108.084C448.056 109.117 447.453 110.028 446.58 110.616C445.708 111.204 444.638 111.422 443.605 111.221L443.603 111.221Z" fill="#D4E55A"/>
<path d="M457.113 127.487L357.799 108.185C356.766 107.984 355.855 107.381 355.267 106.509C354.678 105.636 354.46 104.566 354.661 103.533C354.862 102.5 355.465 101.59 356.337 101.001C357.21 100.413 358.28 100.195 359.313 100.396L458.627 119.698C459.66 119.899 460.571 120.502 461.16 121.374C461.748 122.246 461.966 123.317 461.765 124.35C461.564 125.382 460.961 126.293 460.089 126.882C459.217 127.47 458.146 127.688 457.113 127.487Z" fill="#D4E55A"/>
<path d="M433.667 162.331L350.421 146.151C349.388 145.95 348.318 146.168 347.445 146.757C346.573 147.345 345.97 148.256 345.769 149.288C345.569 150.321 345.786 151.391 346.375 152.264C346.963 153.136 347.874 153.739 348.907 153.939L432.153 170.119C433.18 170.304 434.238 170.078 435.099 169.489C435.96 168.9 436.555 167.996 436.754 166.972C436.953 165.948 436.741 164.887 436.163 164.018C435.585 163.149 434.689 162.543 433.667 162.331Z" fill="#CCCCCC"/>
<path d="M447.179 178.598L347.866 159.296C347.351 159.189 346.821 159.185 346.305 159.285C345.789 159.385 345.298 159.586 344.86 159.877C344.423 160.168 344.047 160.542 343.756 160.98C343.464 161.417 343.263 161.907 343.162 162.423C343.062 162.939 343.065 163.469 343.172 163.984C343.278 164.498 343.486 164.987 343.783 165.42C344.079 165.854 344.459 166.224 344.9 166.51C345.341 166.796 345.834 166.991 346.351 167.084L445.664 186.386C446.178 186.493 446.709 186.497 447.225 186.397C447.741 186.298 448.232 186.097 448.669 185.806C449.107 185.515 449.482 185.14 449.773 184.703C450.065 184.265 450.267 183.775 450.367 183.259C450.467 182.743 450.464 182.213 450.358 181.698C450.251 181.184 450.044 180.696 449.747 180.262C449.45 179.828 449.07 179.458 448.629 179.172C448.188 178.887 447.696 178.692 447.179 178.598Z" fill="#CCCCCC"/>
<path d="M420.702 229.022L337.453 212.842C336.42 212.641 335.509 212.038 334.921 211.166C334.333 210.294 334.115 209.223 334.316 208.191C334.516 207.158 335.119 206.247 335.992 205.658C336.864 205.07 337.934 204.852 338.967 205.053L422.218 221.233C423.251 221.434 424.162 222.037 424.75 222.909C425.339 223.782 425.556 224.852 425.356 225.885C425.155 226.918 424.552 227.828 423.68 228.417C422.807 229.005 421.737 229.223 420.704 229.022L420.702 229.022Z" fill="#CCCCCC"/>
<path d="M434.213 245.287L334.898 225.985C333.865 225.784 332.954 225.181 332.366 224.309C331.778 223.436 331.56 222.366 331.761 221.333C331.961 220.3 332.564 219.39 333.437 218.801C334.309 218.213 335.379 217.995 336.412 218.196L435.727 237.498C436.76 237.699 437.671 238.302 438.259 239.174C438.847 240.046 439.065 241.117 438.864 242.15C438.664 243.182 438.061 244.093 437.188 244.682C436.316 245.27 435.246 245.488 434.213 245.287Z" fill="#CCCCCC"/>
<path d="M322.491 104.745C330.093 106.223 337.454 101.258 338.932 93.6563C340.41 86.0545 335.445 78.6943 327.842 77.2167C320.24 75.7391 312.879 80.7037 311.401 88.3055C309.923 95.9073 314.888 103.268 322.491 104.745Z" fill="#D4E55A"/>
<path d="M322.782 95.9661C322.473 95.9064 322.191 95.7477 321.979 95.5138L321.966 95.4993L319.211 92.3955C318.96 92.1039 318.833 91.7249 318.859 91.3407C318.885 90.9564 319.061 90.5978 319.35 90.3425C319.638 90.0872 320.015 89.9558 320.4 89.9767C320.785 89.9975 321.146 90.169 321.405 90.454L323.189 92.4682L329.395 86.9711C329.539 86.8436 329.706 86.7458 329.888 86.6831C330.07 86.6204 330.262 86.5942 330.454 86.6059C330.646 86.6176 330.834 86.667 331.007 86.7513C331.18 86.8355 331.334 86.953 331.462 87.097L331.423 87.1324L331.463 87.0959C331.72 87.3868 331.852 87.7679 331.828 88.1554C331.804 88.5429 331.628 88.9052 331.337 89.1627L324.035 95.6257C323.867 95.7745 323.666 95.8824 323.449 95.9411C323.231 95.9998 323.004 96.0076 322.783 95.964L322.782 95.9661Z" fill="white"/>
<path d="M328.897 152.83C328.546 154.638 327.843 156.359 326.827 157.895C325.811 159.431 324.502 160.752 322.975 161.782C321.449 162.812 319.734 163.531 317.929 163.899C316.125 164.266 314.265 164.275 312.457 163.924C312.338 163.903 312.221 163.875 312.106 163.841C309.412 163.245 306.955 161.869 305.04 159.884C303.126 157.899 301.839 155.393 301.341 152.681C300.844 149.968 301.157 147.169 302.243 144.634C303.328 142.098 305.137 139.939 307.444 138.427C309.75 136.914 312.451 136.116 315.209 136.131C317.967 136.146 320.66 136.974 322.95 138.511C325.24 140.048 327.025 142.227 328.083 144.773C329.141 147.32 329.424 150.123 328.897 152.83Z" fill="#D4E55A"/>
<path d="M299.59 222.545C307.192 224.023 314.554 219.058 316.031 211.456C317.509 203.855 312.544 196.494 304.942 195.017C297.339 193.539 289.978 198.504 288.5 206.106C287.022 213.707 291.987 221.068 299.59 222.545Z" fill="#D4E55A"/>
<path d="M509.52 83.0943L481.222 77.5944C479.156 77.1929 477.334 75.9872 476.158 74.2427C474.981 72.4981 474.545 70.3576 474.947 68.2919L479.01 47.3936C479.027 47.3021 479.071 47.2175 479.134 47.1495C479.198 47.0814 479.28 47.0327 479.37 47.0089C479.46 46.9852 479.555 46.9872 479.644 47.0149C479.733 47.0426 479.812 47.0948 479.873 47.1656L509.992 82.2827C510.059 82.3609 510.1 82.458 510.109 82.5605C510.118 82.6629 510.095 82.7658 510.044 82.8547C509.992 82.9437 509.914 83.0143 509.82 83.0569C509.726 83.0994 509.622 83.1118 509.521 83.0922L509.52 83.0943Z" fill="#CCCCCC"/>
<path d="M349.781 276.046C348.91 277.474 347.506 278.498 345.88 278.892C344.254 279.286 342.538 279.018 341.109 278.147L267.494 233.25C266.065 232.378 265.041 230.975 264.647 229.349C264.253 227.723 264.521 226.007 265.393 224.579C266.264 223.15 267.667 222.126 269.294 221.732C270.92 221.338 272.636 221.607 274.065 222.478L347.68 267.375C349.108 268.246 350.132 269.649 350.526 271.276C350.92 272.902 350.652 274.618 349.781 276.046Z" fill="#3F3D56"/>
<path d="M276.165 231.152C270.967 239.674 263.358 246.463 254.301 250.661C245.244 254.859 235.145 256.277 225.281 254.736C215.418 253.195 206.233 248.765 198.888 242.004C191.543 235.244 186.368 226.458 184.017 216.756C181.666 207.055 182.245 196.875 185.681 187.503C189.116 178.131 195.254 169.988 203.318 164.103C211.382 158.219 221.01 154.858 230.985 154.445C240.959 154.032 250.832 156.586 259.355 161.783C265.014 165.234 269.938 169.766 273.846 175.12C277.753 180.474 280.568 186.545 282.129 192.986C283.69 199.428 283.967 206.114 282.943 212.662C281.92 219.211 279.617 225.493 276.165 231.152ZM200.755 185.156C196.856 191.548 194.941 198.952 195.251 206.432C195.56 213.912 198.081 221.132 202.495 227.18C206.909 233.227 213.017 237.83 220.047 240.407C227.077 242.983 234.713 243.417 241.99 241.654C249.267 239.891 255.857 236.01 260.928 230.502C265.999 224.994 269.322 218.106 270.478 210.709C271.634 203.312 270.57 195.739 267.421 188.947C264.272 182.154 259.179 176.448 252.787 172.55C244.215 167.323 233.918 165.714 224.16 168.078C214.402 170.443 205.983 176.586 200.755 185.156Z" fill="#3F3D56"/>
<path d="M219.726 241.473C240.235 248.534 262.586 237.634 269.648 217.128C276.71 196.621 265.808 174.273 245.299 167.212C224.79 160.151 202.44 171.051 195.378 191.558C188.316 212.064 199.217 234.412 219.726 241.473Z" fill="#D4E55A"/>
</g>
<defs>
<clipPath id="clip0_18596_2510">
<rect width="516" height="315" fill="white"/>
</clipPath>
</defs>
</svg>
